<svg width="57" height="85" viewBox="0 0 57 85" fill="none" xmlns="http://www.w3.org/2000/svg">
<path d="M53.1244 46.0425C51.166 46.0425 49.583 47.6293 49.583 49.5839V63.7508C49.583 65.7021 47.9962 67.2922 46.041 67.2922H35.4161V14.1678C35.4161 11.1432 33.4894 8.44097 30.5926 7.43516L29.544 7.08432H46.041C47.9962 7.08432 49.583 8.67442 49.583 10.6264V21.2513C49.583 23.2058 51.166 24.7927 53.1244 24.7927C55.0829 24.7927 56.6659 23.2058 56.6659 21.2513V10.6264C56.6659 4.76856 51.8988 0.00149536 46.041 0.00149536H7.96867C7.83378 0.00149536 7.72094 0.0618052 7.58995 0.0793143C7.41939 0.0650476 7.25662 0.00149536 7.08348 0.00149536C3.17696 0.00149536 0 3.17781 0 7.08432V70.8337C0 73.8582 1.92667 76.5605 4.82348 77.5663L26.1375 84.6712C26.8599 84.8943 27.5784 85.0006 28.3333 85.0006C32.2398 85.0006 35.4161 81.8236 35.4161 77.9171V74.3757H46.041C51.8988 74.3757 56.6659 69.6087 56.6659 63.7508V49.5839C56.6659 47.6293 55.0829 46.0425 53.1244 46.0425Z" fill="#FF9900"/>
</svg>
